<svg xmlns="http://www.w3.org/2000/svg" width="32" height="32" enable-background="new 0 0 32 32" viewBox="0 0 32 32" id="humidity"><path d="M16.688,0.274c-0.386-0.365-0.99-0.365-1.376,0C14.81,0.751,3,12.023,3,19c0,7.168,5.832,13,13,13s13-5.832,13-13
		C29,12.023,17.19,0.751,16.688,0.274z M25.793,23.793C25.522,24.063,25.212,24.12,25,24.12s-0.522-0.057-0.793-0.327
		c-1.178-1.178-3.236-1.178-4.414,0C19.522,24.063,19.212,24.12,19,24.12s-0.522-0.057-0.793-0.327
		c-1.178-1.178-3.236-1.178-4.414,0C13.522,24.063,13.212,24.12,13,24.12s-0.522-0.057-0.793-0.327
		c-1.178-1.178-3.236-1.178-4.414,0c-0.438,0.438-1.148,0.438-1.586,0l-0.179-0.179C5.375,22.209,5,20.649,5,19
		c0-0.186,0.031-0.385,0.052-0.581c1.224,0.985,3.019,0.924,4.155-0.212C9.478,17.937,9.788,17.88,10,17.88s0.522,0.057,0.793,0.327
		c1.178,1.178,3.236,1.178,4.414,0c0.271-0.271,0.581-0.327,0.793-0.327s0.522,0.057,0.793,0.327c1.178,1.178,3.236,1.178,4.414,0
		c0.271-0.271,0.581-0.327,0.793-0.327s0.522,0.057,0.793,0.327c0.589,0.589,1.373,0.913,2.207,0.913c0.721,0,1.396-0.255,1.948-0.7
		C26.969,18.615,27,18.815,27,19c0,1.649-0.375,3.209-1.028,4.614L25.793,23.793z M16,2.393c2.98,2.946,8.517,9.093,10.369,13.824
		l-0.576,0.576C25.522,17.063,25.212,17.12,25,17.12s-0.522-0.057-0.793-0.327c-1.178-1.178-3.236-1.178-4.414,0
		C19.522,17.063,19.212,17.12,19,17.12s-0.522-0.057-0.793-0.327c-1.178-1.178-3.236-1.178-4.414,0
		C13.522,17.063,13.212,17.12,13,17.12s-0.522-0.057-0.793-0.327c-1.178-1.178-3.236-1.178-4.414,0c-0.426,0.426-1.16,0.426-1.586,0
		l-0.576-0.576C7.483,11.485,13.02,5.338,16,2.393z M16,30c-3.377,0-6.401-1.533-8.42-3.936c0.597-0.112,1.167-0.397,1.627-0.857
		C9.478,24.937,9.788,24.88,10,24.88s0.522,0.057,0.793,0.327c1.178,1.178,3.236,1.178,4.414,0c0.271-0.271,0.581-0.327,0.793-0.327
		s0.522,0.057,0.793,0.327c1.178,1.178,3.236,1.178,4.414,0c0.271-0.271,0.581-0.327,0.793-0.327s0.522,0.057,0.793,0.327
		c0.45,0.45,1.015,0.742,1.628,0.857C22.401,28.467,19.378,30,16,30z"></path></svg>