<svg xmlns="http://www.w3.org/2000/svg" enable-background="new 0 0 64 64" viewBox="0 0 64 64" id="rainy"><path fill="#fff" d="M54,20v22H14C7.4,42,2,36.6,2,30c0-6.6,5.4-12,12-12c1.4,0,2.8,0.2,4,0.7C18.7,9.4,26.5,2,36,2
		C45.9,2,54,10.1,54,20z"></path><path fill="#acbdc5" fill-rule="evenodd" d="M62,31.1c0-5-4.1-9.1-9.1-9.1h-1C50.4,33.3,36.5,36,24,36c-13.1,0-19.8-2.6-20-5.9c0-1.6,0.4-3.2,1.1-4.7
		c0.8-1.5,1.9-2.8,3.4-3.8c1.4-0.9,3.1-1.5,4.8-1.6c1.7-0.1,3.4,0.2,5,0.9c1.6,0.7,2.9,1.8,3.9,3.2l3.2-2.3
		c-1.4-1.9-3.3-3.5-5.4-4.5c-2.2-1-4.6-1.5-7-1.3s-4.7,1-6.7,2.3c-2,1.3-3.6,3.1-4.7,5.3c-1.1,2.1-1.6,4.5-1.5,6.9
		c0.1,2.4,0.8,4.7,2,6.8c1.2,2,3,3.7,5.1,4.9c2.1,1.2,4.4,1.8,6.8,1.8H52l0.5-2.1C57.9,41.2,62,36.6,62,31.1z" clip-rule="evenodd"></path><path fill="#314a52" d="M16.4,16.2c1.4,0.2,2.6,0.7,3.8,1.2C21.4,9.8,28,4,36,4c8.8,0,16,7.2,16,16c0,0.7,0,1.3-0.1,1.9l-0.2,1.9
		l1.8,0.3c3.7,0.7,6.5,4,6.5,7.9c0,4.4-3.6,8-8,8v4c6.6,0,12-5.4,12-12c0-5.2-3.3-9.7-8-11.3c0-0.2,0-0.5,0-0.7C56,9,47,0,36,0
		C26.3,0,18.1,7,16.4,16.2z"></path><path fill="#0779e4" d="M28,41l-6,23l-3.9-1l6-23L28,41z M42,64l6-23l-3.9-1l-6,23L42,64z M13.9,56L18,41l-3.9-1L10,55L13.9,56z
		 M34,56L38,41l-3.9-1L30,55L34,56z"></path></svg>