<svg xmlns="http://www.w3.org/2000/svg" data-name="Layer 1" viewBox="0 0 64 64" id="snowflake"><polygon fill="#9bf6ff" points="32 22 35.54 28.46 42 32 35.54 35.54 32 42 28.46 35.54 22 32 28.46 28.46 32 22"></polygon><polygon fill="#e2eafc" points="32 27 33.77 30.23 37 32 33.77 33.77 32 37 30.23 33.77 27 32 30.23 30.23 32 27"></polygon><path d="M61,31H57l1.6-1.2a1,1,0,1,0-1.2-1.6L53.67,31h-3l6-5.25a1,1,0,1,0-1.32-1.5L47.62,31H42.26l-5.07-2.77L41.39,24l10.23-.68a1,1,0,0,0,.93-1.06,1,1,0,0,0-1.06-.93l-8,.53,2.12-2.13,4.62-.66a1,1,0,1,0-.28-2l-2,.28,2.83-2.83a1,1,0,0,0-1.41-1.41L46.61,16l.28-2a1,1,0,1,0-2-.28l-.66,4.62-2.13,2.12.53-8a1,1,0,1,0-2-.13L40,22.61l-4.21,4.2L33,21.74V16.38l6.75-7.72a1,1,0,1,0-1.5-1.32l-5.25,6v-3L35.8,6.6a1,1,0,0,0-1.6-1.2L33,7V3a1,1,0,0,0-2,0V7L29.8,5.4a1,1,0,0,0-1.6,1.2L31,10.33v3l-5.25-6a1,1,0,0,0-1.5,1.32L31,16.38v5.36l-2.77,5.07L24,22.61l-.68-10.23a1,1,0,0,0-2,.13l.53,8-2.13-2.12-.66-4.62a1,1,0,1,0-2,.28l.28,2-2.83-2.83a1,1,0,0,0-1.41,1.41L16,17.39l-2-.28a1,1,0,0,0-.28,2l4.62.66,2.12,2.13-8-.53a1,1,0,0,0-1.06.93,1,1,0,0,0,.93,1.06L22.61,24l4.2,4.21L21.74,31H16.38L8.66,24.25a1,1,0,0,0-1.32,1.5l6,5.25h-3L6.6,28.2a1,1,0,0,0-1.2,1.6L7,31H3a1,1,0,0,0,0,2H7L5.4,34.2a1,1,0,0,0-.2,1.4A1,1,0,0,0,6,36a1,1,0,0,0,.6-.2L10.33,33h3l-6,5.25a1,1,0,0,0-.09,1.41A1,1,0,0,0,8,40a1,1,0,0,0,.66-.25L16.38,33h5.36l5.07,2.77L22.61,40l-10.23.68a1,1,0,1,0,.13,2l8-.53-2.12,2.13-4.62.66a1,1,0,1,0,.28,2l2-.28-2.83,2.83a1,1,0,0,0,0,1.41,1,1,0,0,0,.71.29,1,1,0,0,0,.7-.29L17.39,48l-.28,2A1,1,0,0,0,18,51.13h.14a1,1,0,0,0,1-.86l.66-4.62,2.13-2.12-.53,8a1,1,0,0,0,.93,1.06h.06a1,1,0,0,0,1-.94L24,41.39l4.21-4.2L31,42.26v5.36l-6.75,7.72a1,1,0,0,0,1.5,1.32l5.25-6v3L28.2,57.4a1,1,0,0,0,1.6,1.2L31,57v4a1,1,0,0,0,2,0V57l1.2,1.6a1,1,0,0,0,.8.4,1,1,0,0,0,.6-.2,1,1,0,0,0,.2-1.4L33,53.67v-3l5.25,6A1,1,0,0,0,39,57a1,1,0,0,0,.75-1.66L33,47.62V42.26l2.77-5.07L40,41.39l.68,10.23a1,1,0,0,0,1,.94h.06a1,1,0,0,0,.93-1.06l-.53-8,2.13,2.12.66,4.62a1,1,0,0,0,1,.86H46A1,1,0,0,0,46.89,50l-.28-2,2.83,2.83a1,1,0,0,0,.7.29,1,1,0,0,0,.71-.29,1,1,0,0,0,0-1.41L48,46.61l2,.28A1,1,0,0,0,51.13,46a1,1,0,0,0-.85-1.13l-4.62-.66-2.12-2.13,8,.53a1,1,0,0,0,.13-2L41.39,40l-4.2-4.21L42.26,33h5.36l7.72,6.75A1,1,0,0,0,56,40a1,1,0,0,0,.75-.34,1,1,0,0,0-.09-1.41l-6-5.25h3l3.73,2.8a1,1,0,0,0,.6.2,1,1,0,0,0,.8-.4,1,1,0,0,0-.2-1.4L57,33h4a1,1,0,0,0,0-2ZM35.06,34.66a1,1,0,0,0-.4.4L32,39.92l-2.66-4.86a1,1,0,0,0-.4-.4L24.08,32l4.86-2.66a1,1,0,0,0,.4-.4L32,24.08l2.66,4.86a1,1,0,0,0,.4.4L39.92,32Z"></path></svg>