<svg xmlns="http://www.w3.org/2000/svg" viewBox="0 0 64 64" id="windy"><g fill="#3EBBDD"><path d="M45.04 24H2v-2h43.04A2.964 2.964 0 0 0 48 19.04c0-1.712-1.328-3.04-2.96-3.04-1.712 0-3.04 1.328-3.04 2.96V20h-2v-1.04A4.966 4.966 0 0 1 44.96 14c2.815 0 5.04 2.225 5.04 4.96 0 2.815-2.225 5.04-4.96 5.04zM48.04 50C45.225 50 43 47.775 43 45.04V44h2v1.04A2.964 2.964 0 0 0 47.96 48c1.712 0 3.04-1.328 3.04-2.96 0-1.712-1.328-3.04-2.96-3.04H2v-2h46.04A4.966 4.966 0 0 1 53 44.96c0 2.815-2.225 5.04-4.96 5.04z"></path><path d="M26 18h12v2H26zM22 18h2v2h-2zM2 18h18v2H2zM2 44h39v2H2zM45 34h12v2H45zM41 34h2v2h-2zM2 34h37v2H2zM57.04 30H2v-2h55.04A2.964 2.964 0 0 0 60 25.04v-1.08A2.964 2.964 0 0 0 57.04 21C55.328 21 54 22.328 54 23.96V26h-2v-2.04A4.966 4.966 0 0 1 56.96 19c2.815 0 5.04 2.225 5.04 4.96v1.08A4.966 4.966 0 0 1 57.04 30z"></path></g></svg>